<svg xmlns="http://www.w3.org/2000/svg" width="40" height="40" fill="none" viewBox="0 0 240 240">
  <path fill="#46372B" fill-rule="evenodd"
    d="M170 162v6h-10c-2 11-18 19-41 19-17 0-36-8-39-19H70v-6h10c2-12 12-20 41-20 26 0 37 9 39 20h10Zm-30 6c0 9-7 14-16 14-10 0-19-6-23-14h39Zm-39-6c0-9 5-15 14-15s18 6 23 15h-37Zm69-90v6h-10c-2 11-18 19-41 19-17 0-36-8-39-19H70v-6h10c2-12 12-20 41-20 26 0 37 9 39 20h10Zm-30 6c0 9-7 14-16 14-10 0-19-6-23-14h39Zm-39-6c0-9 5-15 14-15s18 6 23 15h-37Zm69 45v6h-10c-2 11-18 19-41 19-17 0-36-8-39-19H70v-6h10c2-12 12-20 41-20 26 0 37 9 39 20h10Zm-30 6c0 9-7 14-16 14-10 0-19-6-23-14h39Zm-39-6c0-9 5-15 14-15s18 6 23 15h-37Z"
    clip-rule="evenodd" />
  <path fill="#46372B" fill-rule="evenodd"
    d="M10 10v220h220V10H10Zm200 190H30V40h180v160Zm-40-38v6h-10c-2 11-18 19-41 19-17 0-36-8-39-19H70v-6h10c2-12 12-20 41-20 26 0 37 9 39 20h10Zm0-90v6h-10c-2 11-18 19-41 19-17 0-36-8-39-19H70v-6h10c2-12 12-20 41-20 26 0 37 9 39 20h10Zm0 45v6h-10c-2 11-18 19-41 19-17 0-36-8-39-19H70v-6h10c2-12 12-20 41-20 26 0 37 9 39 20h10Zm-55-60c-9 0-14 6-14 15h37c-5-9-14-15-23-15Zm25 21c0 9-7 14-16 14-10 0-19-6-23-14h39Zm70-58H30v10h180V20Zm0 200H30v-10h180v10Zm-86-38c9 0 16-5 16-14h-39c4 8 13 14 23 14Zm-23-20c0-9 5-15 14-15s18 6 23 15h-37Zm23-25c9 0 16-5 16-14h-39c4 8 13 14 23 14Zm-23-20c0-9 5-15 14-15s18 6 23 15h-37Z"
    clip-rule="evenodd" />
</svg>