<svg xmlns="http://www.w3.org/2000/svg" width="240" height="240" fill="none" viewBox="0 0 240 240">
  <path fill="#59592D" fill-rule="evenodd" d="M170 162v6h-10c-2 11-18 19-41 19-17 0-36-8-39-19H70v-6h10c2-12 12-20 41-20 26 0 37 9 39 20h10Zm-30 6c0 9-7 14-16 14-10 0-19-6-23-14h39Zm-39-6c0-9 5-15 14-15s18 6 23 15h-37Z" clip-rule="evenodd"/>
  <path fill="#59592D" fill-rule="evenodd" d="M170 162v6h-10c-2 11-18 19-41 19-17 0-36-8-39-19H70v-6h10c2-12 12-20 41-20 26 0 37 9 39 20h10Zm-46 20c9 0 16-5 16-14h-39c4 8 13 14 23 14Zm-23-20c0-9 5-15 14-15s18 6 23 15h-37Zm18-63c-18 0-39-9-39-22s10-23 41-23c28 0 39 11 39 23s-16 22-41 22Zm21-15c0 9-7 11-16 11-13 0-23-13-23-24 0-9 5-13 14-13 13 0 25 14 25 26Z" clip-rule="evenodd"/>
</svg>
