<svg xmlns="http://www.w3.org/2000/svg" width="240" height="240" fill="none" viewBox="0 0 240 240">
  <path fill="currentColor" fill-rule="evenodd"
    d="M115 163c0 5-2.9 19.4-9.4 26.7A37 37 0 0 1 41 167H22v-13h19l9-105c0-5 4-9 10-9h121c5 0 9 4 10 9l8 105h19v13h-18a37.6 37.6 0 0 1-65.4 23.1A50.7 50.7 0 0 1 125 163c0-5 2-8 2-8-3-2-10-2-13 0 0 0 1 3 1 8Zm-62 0a25 25 0 0 1 50 0s-12-11-23-1-2 26-2 26c-14 0-25-12-25-25Zm85 0a25 25 0 0 1 50 0s-12-11-23-1c-12 10-2 26-2 26-14 0-25-12-25-25ZM63 62h115l1 8H62l1-8Zm117 30H60l-5 41a37 37 0 0 1 56 12c6-2 12-2 18 0a38 38 0 0 1 56-12l-5-41Z"
    clip-rule="evenodd" />
</svg>