<svg xmlns="http://www.w3.org/2000/svg" width="40" height="40" fill="none" viewBox="0 0 24 24">
  <path fill="#3D5930" fill-rule="evenodd"
    d="M8.3 3.5c.1-.6.6-1 1.2-1h5c.6 0 1 .4 1.2 1l1.2 6L18.2 8a1 1 0 0 1 0-1.3l.4-.6c.4-.5 1.1-.5 1.6-.1l.5.4c.5.4.6 1.1.1 1.7l-.4.5a1 1 0 0 1-1.3 0L17 11l2 9.2c0 .7-.5 1.4-1.2 1.4H6c-.7 0-1.3-.7-1.1-1.4L8.3 3.5ZM6.1 20.3H18l-.7-3.6H6.8l-.7 3.6ZM9.5 3.6h5l1.5 7-3.4 4v-2.1c1 0 1-1.2 0-1.2v-1c1 0 1-1.2 0-1.2v-.9c1 0 1-1.2 0-1.2V5c0-1-1.2-1-1.2 0v2c-1 0-1 1.2 0 1.2v1c-1 0-1 1.1 0 1.1v1c-1 0-1 1.2 0 1.2v3H7.1l2.4-12Zm3.7 12h3.7l-.7-3.5-3 3.5Z"
    clip-rule="evenodd" />
  <path stroke="#3D5930" stroke-width="1.2"
    d="m.6 9.7 1.7-1.5m6.3-3.4C6.7 5.3 4.8 6.2 3 7.6m12.4-2.8c1 .2 2 .6 2.8 1" />
</svg>