<svg xmlns="http://www.w3.org/2000/svg" width="240" height="240" fill="none" viewBox="0 0 240 240">
  <path fill="#000" fill-rule="evenodd" d="M88 35c2-6 7-10 12-10h50c6 0 11 4 12 10l12 60 14-15c-4-4-5-10-2-13l5-6c4-5 12-5 17-1l4 4c5 4 6 11 1 17l-4 5c-3 4-9 4-13 1l-19 22 18 92c2 7-4 14-11 14H67c-8 0-14-7-12-14L88 35ZM66 203h118l-7-35H74l-8 35Zm34-167h50l15 70-34 40v-21c10 0 10-12 0-12v-10c10 0 10-11 0-11V82c10 0 10-12 0-12V49c0-10-12-10-12 0v21c-9 0-9 12 0 12v10c-9 0-9 11 0 11v10c-9 0-9 12 0 12v31H76l24-120Zm37 120h37l-7-35-30 35Z" clip-rule="evenodd"/>
  <path stroke="#000" stroke-width="12" d="m11 97 17-15m64-34c-19 5-38 14-57 28m124-28c9 2 19 6 29 10"/>
</svg>
