<svg xmlns="http://www.w3.org/2000/svg" width="40" height="40" fill="none" viewBox="0 0 24 24">
  <path fill="#1A4D99"
    d="M5.9 22C4.1 22 2 21 2 19.8c0-1.3 1-2.3 4.1-2.3 2.8 0 3.9 1 3.9 2.3C10 21 8.4 22 5.9 22Zm.5-.4c.9 0 1.6-.2 1.6-1.1 0-1.2-1.2-2.6-2.5-2.6-.9 0-1.4.4-1.4 1.3 0 1 1 2.4 2.3 2.4ZM17.3 7c-2 0-4.3-1-4.3-2.5C13 3.1 14 2 17.5 2c3.1 0 4.3 1.2 4.3 2.5C21.8 6 20.1 7 17.3 7Zm.5-.5c1 0 1.8-.2 1.8-1.2 0-1.3-1.4-2.8-2.7-2.8-1 0-1.6.4-1.6 1.4 0 1.2 1.1 2.6 2.5 2.6Z" />
  <path stroke="#1A4D99" d="M6 17v-2.5m0 0 11.5-2v-3M6 14.5v-3l11.5-2m0 0v-2" />
</svg>