<svg xmlns="http://www.w3.org/2000/svg" width="240" height="240" fill="none" viewBox="0 0 240 240">
  <path fill="#000" d="M59 220c-18 0-39-9-39-22s10-23 41-23c28 0 39 11 39 23s-16 22-41 22Zm5-4c9 0 16-2 16-11 0-12-12-26-25-26-9 0-14 4-14 13 0 11 10 24 23 24ZM173 70c-19 0-43-11-43-25s11-25 45-25c31 0 43 12 43 25 0 14-17 25-45 25Zm5-5c10 0 18-2 18-12 0-13-14-28-27-28-10 0-16 4-16 14 0 12 11 26 25 26Z"/>
  <path stroke="#000" stroke-width="10" d="M60 170v-25m0 0 115-20V95M60 145v-30l115-20m0 0V75"/>
</svg>
