<svg xmlns="http://www.w3.org/2000/svg" width="240" height="240" fill="none" viewBox="0 0 240 240">
  <path fill="#000" d="M10 47.5h220v5H10zm0 35h220v5H10zm0 35h220v5H10zm0 35h220v5H10zm0 35h220v5H10z"/>
  <path fill="#000" d="m61.5 93.3 3.4 19.9c.7 2.4.7 2.4 4.1 2.4 20.3 0 33 15.7 33 33.1 0 15.4-9 27-23 32.5-1.7.7-2 .7-1.7 2.4 1.4 8.5 4.1 21.5 4.1 29 0 23.3-17.8 27.4-27.1 27.4-21 0-26.1-13.3-26.1-22.2 0-8.6 5.5-15.7 14.8-15.7 8.2 0 13 6.4 13 14 0 7.8-4.8 11.6-9.3 13-3 .6-4.4 1.3-4.4 2 0 2 3.7 4.1 11 4.1 8.2 0 22-2.4 22-22.5 0-6.5-2.1-18.5-3.9-27.7-.3-1.8-.3-1.4-2-1l-9.3.6c-33.6 0-50.1-22.5-50.1-46.5C10 110.8 31 91 50.9 75c1.7-1.4 1.3-1.7 1-3.4-.7-5.5-1.7-14.4-1.7-22.3 0-14.3 3-31.4 13.4-42.7 2.7-3 6.8-6.5 8.9-6.5 1.4 0 5.1 3.8 7.2 6.8 5.5 8.2 9 19.9 9 31.8C88.6 59.5 77.2 77 62.4 91c-1 .7-1 .7-1 2.4Zm13-72.1c-8.2 0-18.2 13-18.2 34.5l.7 12.7c.4 1.7 1 1.7 1.7 1 11-9.6 24-21.9 24-37 0-7.4-3.7-11.2-8.2-11.2Zm-15 93-2.8-17.4c-.4-1.4-.7-1.8-2-.4-6.3 5.1-12.8 10.3-21 19.2A45.3 45.3 0 0 0 21 147.4c0 19.1 15.4 32.4 39.5 32.4l7.9-.7c2-.6 2-.6 1.7-2l-6.9-40.7c-.3-1.7-.3-1.7-2.7-1-8.3 2-13.8 8.2-13.8 15.7a16 16 0 0 0 10 14.7c1 .4 2 1 2 1.7 0 1-.6 1.7-1.7 1.7l-3.7-1c-9.3-3-15.8-11.6-15.8-24 0-11.5 7.9-22.5 19.9-26.6 2.7-.7 2.7-.7 2-3.4ZM69 136l7 39c0 1.7.3 1.7 2 .6 7.5-3.7 13-10.6 13-19.1 0-12.3-9.3-21.6-20.6-22.6-1.4 0-1.7.4-1.4 2Z"/>
  <path fill="#000" fill-rule="evenodd" d="M220 152v6c-2 11-18 19-41 19-17 0-36-8-39-19v-6c2-12 12-20 41-20 26 0 37 9 39 20Zm-20 6c0 9-7 14-16 14-10 0-19-6-23-14h39Zm-39-6c0-9 5-15 14-15s18 6 23 15h-37Z" clip-rule="evenodd"/>
  <path fill="#000" fill-rule="evenodd" d="M220 152v6c-2 11-18 19-41 19-17 0-36-8-39-19v-6c2-12 12-20 41-20 26 0 37 9 39 20Zm-36 20c9 0 16-5 16-14h-39c4 8 13 14 23 14Zm-23-20c0-9 5-15 14-15s18 6 23 15h-37Z" clip-rule="evenodd"/>
</svg>
