<svg xmlns="http://www.w3.org/2000/svg" width="40" height="40" fill="none" viewBox="0 0 24 24">
  <path fill="#1A4D99" fill-rule="evenodd" d="M11.54 16.26a3.75 3.75 0 0 1-7.47.48H2.2v-1.38h1.9l.85-10.44a1 1 0 0 1 1-.92h12.13a1 1 0 0 1 1 .92l.84 10.44h1.87v1.38h-1.82a3.75 3.75 0 0 1-7.47-.48l.15-.75c-.43-.1-.83-.1-1.27 0l.15.75Zm-6.25 0a2.5 2.5 0 0 1 5 0S9.13 15.19 8 16.22c-1.12 1.02-.21 2.53-.21 2.53a2.5 2.5 0 0 1-2.5-2.5Zm8.47 0a2.5 2.5 0 0 1 5 0s-1.16-1.07-2.29-.04c-1.12 1.02-.21 2.53-.21 2.53a2.5 2.5 0 0 1-2.5-2.5ZM6.28 6.23h11.48l.17.76H6.16l.12-.76Zm11.76 3h-12l-.51 4.04a3.74 3.74 0 0 1 5.59 1.27 3 3 0 0 1 1.81 0 3.75 3.75 0 0 1 5.57-1.28l-.46-4.03Z" clip-rule="evenodd"/>
</svg>
