<svg xmlns="http://www.w3.org/2000/svg">

  <symbol id="material-settings" viewBox="0 -960 960 960">
    <path
      d="m370-80-16-128q-13-5-24.5-12T307-235l-119 50L78-375l103-78q-1-7-1-13.5v-27q0-6.5 1-13.5L78-585l110-190 119 50q11-8 23-15t24-12l16-128h220l16 128q13 5 24.5 12t22.5 15l119-50 110 190-103 78q1 7 1 13.5v27q0 6.5-2 13.5l103 78-110 190-118-50q-11 8-23 15t-24 12L590-80H370Zm112-260q58 0 99-41t41-99q0-58-41-99t-99-41q-59 0-99.5 41T342-480q0 58 40.5 99t99.5 41Z" />
  </symbol>

  <symbol id="material-connect" viewBox="0 -960 960 960">
    <path
      d="M200-120q-17 0-28.5-11.5T160-160v-40h-40v-160q0-17 11.5-28.5T160-400h40v-280q0-66 47-113t113-47q66 0 113 47t47 113v400q0 33 23.5 56.5T600-200q33 0 56.5-23.5T680-280v-280h-40q-17 0-28.5-11.5T600-600v-160h40v-40q0-17 11.5-28.5T680-840h80q17 0 28.5 11.5T800-800v40h40v160q0 17-11.5 28.5T800-560h-40v280q0 66-47 113t-113 47q-66 0-113-47t-47-113v-400q0-33-23.5-56.5T360-760q-33 0-56.5 23.5T280-680v280h40q17 0 28.5 11.5T360-360v160h-40v40q0 17-11.5 28.5T280-120h-80Z" />
  </symbol>

  <symbol id="material-left-arrow" viewBox="0 -960 960 960">
    <path d="M400-80 0-480l400-400 71 71-329 329 329 329-71 71Z" />
  </symbol>

  <symbol id="material-play-circle" viewBox="0 -960 960 960">
    <path
      d="m380-300 280-180-280-180v360ZM480-80q-83 0-156-31.5T197-197q-54-54-85.5-127T80-480q0-83 31.5-156T197-763q54-54 127-85.5T480-880q83 0 156 31.5T763-763q54 54 85.5 127T880-480q0 83-31.5 156T763-197q-54 54-127 85.5T480-80Z" />
  </symbol>

  <symbol id="material-exit" viewBox="0 -960 960 960">
    <path d="m256-200-56-56 224-224-224-224 56-56 224 224 224-224 56 56-224 224 224 224-56 56-224-224-224 224Z" />
  </symbol>

  <symbol id="material-menu" viewBox="0 -960 960 960">
    <path d="M120-240v-80h720v80H120Zm0-200v-80h720v80H120Zm0-200v-80h720v80H120Z" />
  </symbol>

  <symbol id="material-stop" viewBox="0 -960 960 960">
    <path d="M240-240v-480h480v480H240Z" />
  </symbol>

  <symbol id="material-start" viewBox="0 -960 960 960">
    <path d="M320-200v-560l440 280-440 280Z" />
  </symbol>

  <symbol id="material-sun" viewBox="0 -960 960 960">
    <path
      d="M440-800v-120h80v120h-80Zm0 760v-120h80v120h-80Zm360-400v-80h120v80H800Zm-760 0v-80h120v80H40Zm708-252-56-56 70-72 58 58-72 70ZM198-140l-58-58 72-70 56 56-70 72Zm564 0-70-72 56-56 72 70-58 58ZM212-692l-72-70 58-58 70 72-56 56Zm268 452q-100 0-170-70t-70-170q0-100 70-170t170-70q100 0 170 70t70 170q0 100-70 170t-170 70Zm0-80q67 0 113.5-46.5T640-480q0-67-46.5-113.5T480-640q-67 0-113.5 46.5T320-480q0 67 46.5 113.5T480-320Zm0-160Z" />
  </symbol>

  <symbol id="material-moon" viewBox="0 -960 960 960">
    <path
      d="M484-80q-84 0-157.5-32t-128-86.5Q144-253 112-326.5T80-484q0-146 93-257.5T410-880q-18 99 11 193.5T521-521q71 71 165.5 100T880-410q-26 144-138 237T484-80Zm0-80q88 0 163-44t118-121q-86-8-163-43.5T464-465q-61-61-97-138t-43-163q-77 43-120.5 118.5T160-484q0 135 94.5 229.5T484-160Zm-20-305Z" />
  </symbol>

  <symbol id="note-recognition" viewBox="0 0 240 240">
    <path fill-rule="evenodd"
      d="M115 163c0 5-2.9 19.4-9.4 26.7A37 37 0 0 1 41 167H22v-13h19l9-105c0-5 4-9 10-9h121c5 0 9 4 10 9l8 105h19v13h-18a37.6 37.6 0 0 1-65.4 23.1A50.7 50.7 0 0 1 125 163c0-5 2-8 2-8-3-2-10-2-13 0 0 0 1 3 1 8Zm-62 0a25 25 0 0 1 50 0s-12-11-23-1-2 26-2 26c-14 0-25-12-25-25Zm85 0a25 25 0 0 1 50 0s-12-11-23-1c-12 10-2 26-2 26-14 0-25-12-25-25ZM63 62h115l1 8H62l1-8Zm117 30H60l-5 41a37 37 0 0 1 56 12c6-2 12-2 18 0a38 38 0 0 1 56-12l-5-41Z" />
  </symbol>

  <symbol id="sight-reading" viewBox="0 0 240 240">
    <path d="M10 47.5h220v5H10zm0 35h220v5H10zm0 35h220v5H10zm0 35h220v5H10zm0 35h220v5H10z" />
    <path
      d="m61.5 93.3 3.4 19.9c.7 2.4.7 2.4 4.1 2.4 20.3 0 33 15.7 33 33.1 0 15.4-9 27-23 32.5-1.7.7-2 .7-1.7 2.4 1.4 8.5 4.1 21.5 4.1 29 0 23.3-17.8 27.4-27.1 27.4-21 0-26.1-13.3-26.1-22.2 0-8.6 5.5-15.7 14.8-15.7 8.2 0 13 6.4 13 14 0 7.8-4.8 11.6-9.3 13-3 .6-4.4 1.3-4.4 2 0 2 3.7 4.1 11 4.1 8.2 0 22-2.4 22-22.5 0-6.5-2.1-18.5-3.9-27.7-.3-1.8-.3-1.4-2-1l-9.3.6c-33.6 0-50.1-22.5-50.1-46.5C10 110.8 31 91 50.9 75c1.7-1.4 1.3-1.7 1-3.4-.7-5.5-1.7-14.4-1.7-22.3 0-14.3 3-31.4 13.4-42.7 2.7-3 6.8-6.5 8.9-6.5 1.4 0 5.1 3.8 7.2 6.8 5.5 8.2 9 19.9 9 31.8C88.6 59.5 77.2 77 62.4 91c-1 .7-1 .7-1 2.4Zm13-72.1c-8.2 0-18.2 13-18.2 34.5l.7 12.7c.4 1.7 1 1.7 1.7 1 11-9.6 24-21.9 24-37 0-7.4-3.7-11.2-8.2-11.2Zm-15 93-2.8-17.4c-.4-1.4-.7-1.8-2-.4-6.3 5.1-12.8 10.3-21 19.2A45.3 45.3 0 0 0 21 147.4c0 19.1 15.4 32.4 39.5 32.4l7.9-.7c2-.6 2-.6 1.7-2l-6.9-40.7c-.3-1.7-.3-1.7-2.7-1-8.3 2-13.8 8.2-13.8 15.7a16 16 0 0 0 10 14.7c1 .4 2 1 2 1.7 0 1-.6 1.7-1.7 1.7l-3.7-1c-9.3-3-15.8-11.6-15.8-24 0-11.5 7.9-22.5 19.9-26.6 2.7-.7 2.7-.7 2-3.4ZM69 136l7 39c0 1.7.3 1.7 2 .6 7.5-3.7 13-10.6 13-19.1 0-12.3-9.3-21.6-20.6-22.6-1.4 0-1.7.4-1.4 2Z" />
    <path fill-rule="evenodd"
      d="M220 152v6c-2 11-18 19-41 19-17 0-36-8-39-19v-6c2-12 12-20 41-20 26 0 37 9 39 20Zm-20 6c0 9-7 14-16 14-10 0-19-6-23-14h39Zm-39-6c0-9 5-15 14-15s18 6 23 15h-37Z" />
    <path fill-rule="evenodd"
      d="M220 152v6c-2 11-18 19-41 19-17 0-36-8-39-19v-6c2-12 12-20 41-20 26 0 37 9 39 20Zm-36 20c9 0 16-5 16-14h-39c4 8 13 14 23 14Zm-23-20c0-9 5-15 14-15s18 6 23 15h-37Z" />
  </symbol>

  <symbol id="rhythm-training" viewBox="0 0 240 240">
    <path fill-rule="evenodd"
      d="M88 35c2-6 7-10 12-10h50c6 0 11 4 12 10l12 60 14-15c-4-4-5-10-2-13l5-6c4-5 12-5 17-1l4 4c5 4 6 11 1 17l-4 5c-3 4-9 4-13 1l-19 22 18 92c2 7-4 14-11 14H67c-8 0-14-7-12-14L88 35ZM66 203h118l-7-35H74l-8 35Zm34-167h50l15 70-34 40v-21c10 0 10-12 0-12v-10c10 0 10-11 0-11V82c10 0 10-12 0-12V49c0-10-12-10-12 0v21c-9 0-9 12 0 12v10c-9 0-9 11 0 11v10c-9 0-9 12 0 12v31H76l24-120Zm37 120h37l-7-35-30 35Z" />
    <path stroke-width="12" d="m11 97 17-15m64-34c-19 5-38 14-57 28m124-28c9 2 19 6 29 10" />
  </symbol>

  <symbol id="chord-guesser" viewBox="0 0 240 240">
    <path fill-rule="evenodd"
      d="M170 162v6h-10c-2 11-18 19-41 19-17 0-36-8-39-19H70v-6h10c2-12 12-20 41-20 26 0 37 9 39 20h10Zm-30 6c0 9-7 14-16 14-10 0-19-6-23-14h39Zm-39-6c0-9 5-15 14-15s18 6 23 15h-37Zm69-90v6h-10c-2 11-18 19-41 19-17 0-36-8-39-19H70v-6h10c2-12 12-20 41-20 26 0 37 9 39 20h10Zm-30 6c0 9-7 14-16 14-10 0-19-6-23-14h39Zm-39-6c0-9 5-15 14-15s18 6 23 15h-37Zm69 45v6h-10c-2 11-18 19-41 19-17 0-36-8-39-19H70v-6h10c2-12 12-20 41-20 26 0 37 9 39 20h10Zm-30 6c0 9-7 14-16 14-10 0-19-6-23-14h39Zm-39-6c0-9 5-15 14-15s18 6 23 15h-37Z" />
    <path fill-rule="evenodd"
      d="M10 10v220h220V10H10Zm200 190H30V40h180v160Zm-40-38v6h-10c-2 11-18 19-41 19-17 0-36-8-39-19H70v-6h10c2-12 12-20 41-20 26 0 37 9 39 20h10Zm0-90v6h-10c-2 11-18 19-41 19-17 0-36-8-39-19H70v-6h10c2-12 12-20 41-20 26 0 37 9 39 20h10Zm0 45v6h-10c-2 11-18 19-41 19-17 0-36-8-39-19H70v-6h10c2-12 12-20 41-20 26 0 37 9 39 20h10Zm-55-60c-9 0-14 6-14 15h37c-5-9-14-15-23-15Zm25 21c0 9-7 14-16 14-10 0-19-6-23-14h39Zm70-58H30v10h180V20Zm0 200H30v-10h180v10Zm-86-38c9 0 16-5 16-14h-39c4 8 13 14 23 14Zm-23-20c0-9 5-15 14-15s18 6 23 15h-37Zm23-25c9 0 16-5 16-14h-39c4 8 13 14 23 14Zm-23-20c0-9 5-15 14-15s18 6 23 15h-37Z" />
  </symbol>

  <symbol id="intervals-drill" viewBox="0 0 240 240">
    <path fill-rule="evenodd"
      d="M170 161.5v6h-10c-2 11-18 19-41 19-17 0-36-8-39-19H70v-6h10c2-12 12-20 41-20 26 0 37 9 39 20h10Zm-30 6c0 9-7 14-16 14-10 0-19-6-23-14h39Zm-39-6c0-9 5-15 14-15s18 6 23 15h-37Z" />
    <path fill-rule="evenodd"
      d="M170 161.5v6h-10c-2 11-18 19-41 19-17 0-36-8-39-19H70v-6h10c2-12 12-20 41-20 26 0 37 9 39 20h10Zm-46 20c9 0 16-5 16-14h-39c4 8 13 14 23 14Zm-23-20c0-9 5-15 14-15s18 6 23 15h-37ZM119 99c-18 0-39-9-39-22s10-23 41-23c28 0 39 11 39 23s-16 22-41 22Zm21-15c0 9-7 11-16 11-13 0-23-13-23-24 0-9 5-13 14-13 13 0 25 14 25 26Z" />
  </symbol>

  <symbol id="scales" viewBox="0 0 240 240">
    <path
      d="M59 220c-18 0-39-9-39-22s10-23 41-23c28 0 39 11 39 23s-16 22-41 22Zm5-4c9 0 16-2 16-11 0-12-12-26-25-26-9 0-14 4-14 13 0 11 10 24 23 24ZM173 70c-19 0-43-11-43-25s11-25 45-25c31 0 43 12 43 25 0 14-17 25-45 25Zm5-5c10 0 18-2 18-12 0-13-14-28-27-28-10 0-16 4-16 14 0 12 11 26 25 26Z" />
    <path stroke-width="10" d="M60 170v-25m0 0 115-20V95M60 145v-30l115-20m0 0V75" />
  </symbol>

  <symbol id="piano" viewBox="0 0 240 240">
    <path fill-rule="evenodd"
      d="M10 10h220v220H10V10Zm20 200V30h35v100h15v80H30ZM210 30v180h-50v-80h15V30h35Zm-75 0v100h15v80H90v-80h15V30h30Z" />
  </symbol>

</svg>