<svg xmlns="http://www.w3.org/2000/svg" width="48" height="48" fill="none" viewBox="0 0 48 48">
  <path fill="#D5E6FF" stroke="#163A71" d="M9.1 20.8 8 23.2c-.8 1.6-.4 3.6.8 4.9.7.6 1.1 1.5 1.3 2.4l.8 6.2a3 3 0 0 0 3 2.6h3.7a1.3 1.3 0 0 1 1.2 1l.4 1.7a3.7 3.7 0 0 0 3.7 3h.2c.5 0 1 0 1.4-.2l4-1.4a9.9 9.9 0 0 0 4.6-3.2l1.4-1.8a5 5 0 0 0 1.1-4.1c-.2-1.2 0-2.4.7-3.5l2-3.4c1.1-2 1.8-4 2.1-6.3v-.6c.4-2.7 0-5.5-1-8v-.3a14.2 14.2 0 0 0-8-8H31C29 3.3 27.2 3 25.2 3h-1.5c-1.7 0-3.3.3-4.8.9h-.1a13.2 13.2 0 0 0-7.5 7.2v.1a14 14 0 0 0-1.1 4.1l-.3 2.8c-.1 1-.4 1.9-.8 2.7Z"/>
  <path fill="#2B80FF" d="M27 24.7a1 1 0 0 1-.7.3h-1.8a1 1 0 0 1-.6-.2c-1.8-1.7-3-3.9-3.5-6.5v6a.8.8 0 0 1-1.4.4 11.6 11.6 0 0 1-2.3-7.4 10 10 0 0 1 2.4-7l.6-.3c.4 0 .7.3.7.7v5.8c.7-2.7 1.6-4.7 3.5-6.3l.6-.2h1.8c.3 0 .5 0 .7.2 1.8 1.7 3 3.5 3.6 6.3v-5.8a.7.7 0 0 1 1.2-.4c1.6 2.2 2.3 3.8 2.5 7-.3 3.5-1 5.1-2.5 7.4 0 .2-.3.3-.5.3a.7.7 0 0 1-.7-.7v-6a11 11 0 0 1-3.6 6.4ZM15.7 13.1c.2 0 .5.3.5.5v7.7c0 .3-.3.5-.6.5-.1 0-.3 0-.4-.2a7.6 7.6 0 0 1 0-8.2c.1-.2.3-.3.5-.3Zm19.6 0c-.2 0-.5.3-.5.5v7.7c0 .3.3.5.6.5.1 0 .3 0 .4-.2a7.6 7.6 0 0 0 0-8.2.5.5 0 0 0-.5-.3Z"/>
</svg>
